<?xml version="1.0" encoding="utf-8"?>
<!-- Generator: Adobe Illustrator 23.0.6, SVG Export Plug-In . SVG Version: 6.00 Build 0)  -->
<svg version="1.1" id="Layer_1" xmlns="http://www.w3.org/2000/svg" xmlns:xlink="http://www.w3.org/1999/xlink" x="0px" y="0px"
	 viewBox="0 0 71.3 71.3" style="enable-background:new 0 0 71.3 71.3;" xml:space="preserve">
<style type="text/css">
	.st0{fill:#FFFFFF;}
	.st1{fill:#565759;}
	.st2{fill:#F47641;}
	.st3{fill:#F8BB4A;}
	.st4{fill:#5E6062;}
	.st5{fill:#FF7E3E;}
	.st6{fill:#F9BB4B;}
	.st7{fill:none;}
	.st8{fill:#E6E6E6;}
	.st9{fill:#B3B3B3;}
	.st10{fill:#0D82DC;}
	.st11{fill:#74A853;}
	.st12{fill:#FFBF3B;}
</style>
<rect x="-776.3" y="-206.7" class="st0" width="998" height="558"/>
<g>
</g>
<g>
	<path class="st12" d="M68.2,50.4l3.1,17c0.2,1.1-0.1,2.1-1,2.9s-1.8,1.2-2.9,1l-17-3.1L13.9,31.7c-0.4-0.4-0.6-0.8-0.6-1.3
		c0-0.5,0.2-0.8,0.6-1.1l15.5-15.5c0.3-0.4,0.6-0.6,1.1-0.6c0.5,0,0.9,0.2,1.3,0.6L68.2,50.4z M52.4,59v5l8.9,1.7l4.5-4.5l-1.7-8.9
		h-5V59H52.4z M54.6,46c0-0.6-0.2-1-0.6-1.4L32.6,23.1c-0.4-0.4-0.8-0.6-1.4-0.6c-0.6,0-1,0.2-1.4,0.6s-0.6,0.8-0.6,1.4
		s0.2,1,0.6,1.4l21.4,21.4c0.4,0.4,0.8,0.6,1.4,0.6s1-0.2,1.4-0.6C54.4,47,54.6,46.5,54.6,46z M8.4,26.2c0.4,0.4,0.8,0.6,1.3,0.6
		s0.8-0.2,1.1-0.6l15.5-15.5c0.4-0.3,0.6-0.6,0.6-1.1c0-0.5-0.2-0.9-0.6-1.3l-6.4-6.4C18.5,0.6,16.9,0,15,0c-1.9,0-3.4,0.6-4.7,1.9
		l-8.4,8.4C0.6,11.6,0,13.2,0,15c0,1.9,0.6,3.4,1.9,4.7L8.4,26.2z"/>
</g>
</svg>
